<svg xmlns="http://www.w3.org/2000/svg" xmlns:xlink="http://www.w3.org/1999/xlink" width="512" zoomAndPan="magnify" viewBox="0 0 384 383.999986" height="512" preserveAspectRatio="xMidYMid meet" version="1.0"><defs><clipPath id="37cf365396"><path d="M 12.058594 36 L 372.058594 36 L 372.058594 348 L 12.058594 348 Z M 12.058594 36 " clip-rule="nonzero"/></clipPath></defs><rect x="-38.4" width="460.8" fill="#ffffff" y="-38.399999" height="460.799983" fill-opacity="1"/><rect x="-38.4" width="460.8" fill="#ffffff" y="-38.399999" height="460.799983" fill-opacity="1"/><path fill="#53c1de" d="M 224.207031 191.691406 C 224.207031 174.488281 209.816406 160.539062 192.058594 160.539062 C 174.308594 160.539062 159.914062 174.488281 159.914062 191.691406 C 159.914062 208.898438 174.308594 222.847656 192.058594 222.847656 C 209.816406 222.847656 224.207031 208.898438 224.207031 191.691406 Z M 224.207031 191.691406 " fill-opacity="1" fill-rule="nonzero"/><g clip-path="url(#37cf365396)"><path fill="#53c1de" d="M 296.464844 133.851562 C 303.253906 107.117188 311.785156 57.539062 281.703125 40.734375 C 251.761719 23.996094 212.800781 56.066406 192.226562 75.3125 C 171.710938 56.257812 131.65625 24.328125 101.597656 41.1875 C 71.667969 57.980469 80.898438 106.734375 87.839844 133.636719 C 59.917969 141.320312 12.058594 157.875 12.058594 191.691406 C 12.058594 225.414062 59.871094 243.421875 87.625 251.101562 C 80.660156 278.152344 71.890625 326.210938 101.859375 342.964844 C 132.027344 359.820312 171.960938 328.652344 192.722656 309.191406 C 213.429688 328.554688 252.019531 359.929688 281.964844 343.128906 C 312.007812 326.273438 304.183594 277.363281 297.242188 250.304688 C 324.148438 242.609375 372.058594 224.992188 372.058594 191.691406 C 372.058594 158.199219 323.941406 141.511719 296.464844 133.851562 Z M 293.054688 235.964844 C 288.496094 221.984375 282.347656 207.121094 274.824219 191.765625 C 282.003906 176.773438 287.917969 162.101562 292.347656 148.210938 C 312.492188 153.871094 356.679688 166.808594 356.679688 191.691406 C 356.679688 216.808594 314.273438 229.867188 293.054688 235.964844 Z M 274.257812 330.230469 C 251.914062 342.761719 218.726562 312.761719 203.433594 298.503906 C 213.578125 287.75 223.714844 275.25 233.609375 261.367188 C 251.015625 259.871094 267.457031 257.425781 282.367188 254.085938 C 287.25 273.222656 296.703125 317.636719 274.257812 330.230469 Z M 109.542969 330.050781 C 87.195312 317.5625 97.410156 274.675781 102.535156 254.75 C 117.28125 257.914062 133.601562 260.1875 151.046875 261.558594 C 161.007812 275.140625 171.4375 287.625 181.949219 298.558594 C 168.964844 310.734375 131.992188 342.59375 109.542969 330.050781 Z M 27.4375 191.691406 C 27.4375 166.480469 71.363281 153.636719 91.96875 147.992188 C 96.472656 162.191406 102.382812 177.039062 109.515625 192.054688 C 102.289062 207.292969 96.296875 222.375 91.75 236.742188 C 72.105469 231.292969 27.4375 216.917969 27.4375 191.691406 Z M 109.304688 54.085938 C 131.742188 41.5 166.554688 72.152344 181.449219 85.953125 C 170.992188 96.835938 160.65625 109.226562 150.785156 122.730469 C 133.851562 124.25 117.644531 126.695312 102.746094 129.964844 C 97.15625 108.269531 86.890625 66.660156 109.304688 54.085938 Z M 244.609375 138.929688 C 256.097656 140.335938 267.101562 142.203125 277.4375 144.488281 C 274.335938 154.125 270.46875 164.203125 265.914062 174.53125 C 259.3125 162.394531 252.226562 150.5 244.609375 138.929688 Z M 192.230469 96.601562 C 199.324219 104.050781 206.429688 112.363281 213.417969 121.386719 C 199.242188 120.738281 185.042969 120.734375 170.867188 121.378906 C 177.863281 112.4375 185.027344 104.136719 192.230469 96.601562 Z M 118.335938 174.523438 C 113.859375 164.226562 110.027344 154.105469 106.898438 144.332031 C 117.167969 142.105469 128.125 140.285156 139.535156 138.902344 C 131.898438 150.445312 124.824219 162.335938 118.335938 174.523438 Z M 139.863281 245.542969 C 128.074219 244.269531 116.953125 242.539062 106.6875 240.375 C 109.863281 230.429688 113.78125 220.089844 118.355469 209.574219 C 124.929688 221.886719 132.113281 233.890625 139.863281 245.542969 Z M 192.65625 287.835938 C 185.367188 280.210938 178.097656 271.78125 170.996094 262.714844 C 185.253906 263.253906 199.535156 263.257812 213.792969 262.640625 C 206.78125 271.875 199.703125 280.316406 192.65625 287.835938 Z M 266.058594 209.039062 C 270.871094 219.667969 274.929688 229.953125 278.148438 239.730469 C 267.710938 242.039062 256.441406 243.898438 244.566406 245.277344 C 252.238281 233.488281 259.4375 221.410156 266.058594 209.039062 Z M 225.027344 247.085938 C 203.222656 248.59375 181.277344 248.578125 159.464844 247.207031 C 147.070312 229.660156 136.035156 211.207031 126.511719 192.050781 C 135.992188 172.933594 146.945312 154.515625 159.28125 136.996094 C 181.109375 135.398438 203.074219 135.390625 224.902344 137.003906 C 237.132812 154.523438 248.070312 172.894531 257.769531 191.839844 C 248.183594 210.945312 237.171875 229.402344 225.027344 247.085938 Z M 274.023438 53.644531 C 296.46875 66.1875 286.476562 110.746094 281.574219 130.121094 C 266.636719 126.78125 250.417969 124.292969 233.4375 122.75 C 223.546875 109.097656 213.296875 96.6875 203.007812 85.945312 C 218.09375 71.847656 251.796875 41.222656 274.023438 53.644531 Z M 274.023438 53.644531 " fill-opacity="1" fill-rule="evenodd"/></g></svg>