<svg xmlns="http://www.w3.org/2000/svg" xmlns:xlink="http://www.w3.org/1999/xlink" width="512" zoomAndPan="magnify" viewBox="0 0 384 383.999986" height="512" preserveAspectRatio="xMidYMid meet" version="1.0"><defs><clipPath id="f91b1fb308"><path d="M 73 90 L 310.691406 90 L 310.691406 360.097656 L 73 360.097656 Z M 73 90 " clip-rule="nonzero"/></clipPath><clipPath id="74e658be2d"><path d="M 95 24.097656 L 140 24.097656 L 140 70 L 95 70 Z M 95 24.097656 " clip-rule="nonzero"/></clipPath><clipPath id="217519f48f"><path d="M 145 24.097656 L 188 24.097656 L 188 70 L 145 70 Z M 145 24.097656 " clip-rule="nonzero"/></clipPath><clipPath id="0763815b9b"><path d="M 194 24.097656 L 246 24.097656 L 246 70 L 194 70 Z M 194 24.097656 " clip-rule="nonzero"/></clipPath><clipPath id="f4592fad9f"><path d="M 252 24.097656 L 289 24.097656 L 289 70 L 252 70 Z M 252 24.097656 " clip-rule="nonzero"/></clipPath></defs><rect x="-38.4" width="460.8" fill="#ffffff" y="-38.399999" height="460.799983" fill-opacity="1"/><rect x="-38.4" width="460.8" fill="#ffffff" y="-38.399999" height="460.799983" fill-opacity="1"/><g clip-path="url(#f91b1fb308)"><path fill="#e44d26" d="M 310.625 90.125 L 288.984375 333.0625 L 191.714844 360.082031 L 94.710938 333.097656 L 73.097656 90.125 L 310.621094 90.121094 L 310.628906 90.121094 Z M 310.625 90.125 " fill-opacity="1" fill-rule="nonzero"/></g><path fill="#f16529" d="M 191.863281 339.429688 L 270.464844 317.59375 L 288.957031 109.996094 L 191.863281 109.992188 Z M 191.863281 339.429688 " fill-opacity="1" fill-rule="nonzero"/><path fill="#ebebeb" d="M 149.796875 169.589844 L 191.863281 169.589844 L 191.863281 139.789062 L 117.296875 139.789062 L 118.007812 147.785156 L 125.316406 229.90625 L 191.863281 229.90625 L 191.863281 200.113281 L 152.511719 200.113281 Z M 149.796875 169.589844 " fill-opacity="1" fill-rule="nonzero"/><path fill="#ebebeb" d="M 156.496094 244.804688 L 126.648438 244.804688 L 130.8125 291.597656 L 191.722656 308.542969 L 191.863281 308.507812 L 191.863281 277.5 L 191.730469 277.539062 L 158.613281 268.570312 Z M 156.496094 244.804688 " fill-opacity="1" fill-rule="nonzero"/><g clip-path="url(#74e658be2d)"><path fill="#000000" d="M 95.195312 24.097656 L 110.308594 24.097656 L 110.308594 39.058594 L 124.132812 39.058594 L 124.132812 24.097656 L 139.246094 24.097656 L 139.246094 69.40625 L 124.132812 69.40625 L 124.132812 54.234375 L 110.308594 54.234375 L 110.308594 69.40625 L 95.195312 69.40625 Z M 95.195312 24.097656 " fill-opacity="1" fill-rule="nonzero"/></g><g clip-path="url(#217519f48f)"><path fill="#000000" d="M 159.117188 39.121094 L 145.8125 39.121094 L 145.8125 24.097656 L 187.542969 24.097656 L 187.542969 39.121094 L 174.226562 39.121094 L 174.226562 69.40625 L 159.117188 69.40625 Z M 159.117188 39.121094 " fill-opacity="1" fill-rule="nonzero"/></g><g clip-path="url(#0763815b9b)"><path fill="#000000" d="M 194.164062 24.097656 L 209.917969 24.097656 L 219.609375 40.015625 L 229.292969 24.097656 L 245.054688 24.097656 L 245.054688 69.40625 L 230.007812 69.40625 L 230.007812 46.949219 L 219.609375 63.058594 L 219.347656 63.058594 L 208.949219 46.949219 L 208.949219 69.40625 L 194.164062 69.40625 Z M 194.164062 24.097656 " fill-opacity="1" fill-rule="nonzero"/></g><g clip-path="url(#f4592fad9f)"><path fill="#000000" d="M 252.578125 24.097656 L 267.691406 24.097656 L 267.691406 54.429688 L 288.949219 54.429688 L 288.949219 69.40625 L 252.578125 69.40625 Z M 252.578125 24.097656 " fill-opacity="1" fill-rule="nonzero"/></g><path fill="#ffffff" d="M 191.761719 229.90625 L 228.378906 229.90625 L 224.925781 268.550781 L 191.761719 277.527344 L 191.761719 308.523438 L 252.71875 291.597656 L 253.167969 286.5625 L 260.160156 208.109375 L 260.886719 200.113281 L 191.761719 200.113281 Z M 191.761719 229.90625 " fill-opacity="1" fill-rule="nonzero"/><path fill="#ffffff" d="M 191.761719 169.515625 L 191.761719 169.589844 L 263.585938 169.589844 L 264.179688 162.890625 L 265.539062 147.785156 L 266.246094 139.789062 L 191.761719 139.789062 Z M 191.761719 169.515625 " fill-opacity="1" fill-rule="nonzero"/></svg>