<svg xmlns="http://www.w3.org/2000/svg" xmlns:xlink="http://www.w3.org/1999/xlink" width="512" zoomAndPan="magnify" viewBox="0 0 384 383.999986" height="512" preserveAspectRatio="xMidYMid meet" version="1.0"><defs><clipPath id="8707c1cdf5"><path d="M 100 19.199219 L 276 19.199219 L 276 364.949219 L 100 364.949219 Z M 100 19.199219 " clip-rule="nonzero"/></clipPath></defs><rect x="-38.4" width="460.8" fill="#ffffff" y="-38.399999" height="460.799983" fill-opacity="1"/><rect x="-38.4" width="460.8" fill="#ffffff" y="-38.399999" height="460.799983" fill-opacity="1"/><path fill="#4e7896" d="M 161.515625 202.558594 C 161.515625 202.558594 152.414062 208.101562 167.847656 209.6875 C 186.449219 212.0625 196.339844 211.667969 216.917969 207.707031 C 216.917969 207.707031 222.457031 211.269531 229.976562 214.042969 C 183.675781 233.84375 125.105469 212.855469 161.515625 202.558594 Z M 155.582031 176.816406 C 155.582031 176.816406 145.6875 184.339844 161.121094 185.925781 C 181.304688 187.90625 197.132812 188.300781 224.4375 182.757812 C 224.4375 182.757812 228 186.71875 233.933594 188.699219 C 178.136719 205.332031 115.609375 190.28125 155.578125 176.816406 Z M 264.804688 221.957031 C 264.804688 221.957031 271.53125 227.503906 257.285156 231.859375 C 230.769531 239.777344 146.085938 242.15625 122.339844 231.859375 C 114.027344 228.296875 129.859375 223.144531 135 222.355469 C 140.144531 221.167969 142.917969 221.167969 142.917969 221.167969 C 133.816406 214.832031 82.371094 234.234375 116.796875 239.777344 C 211.378906 255.222656 289.335938 233.046875 264.804688 221.957031 Z M 165.871094 149.882812 C 165.871094 149.882812 122.738281 160.179688 150.4375 163.746094 C 162.3125 165.328125 185.660156 164.933594 207.425781 163.347656 C 225.230469 161.765625 243.039062 158.59375 243.039062 158.59375 C 243.039062 158.59375 236.710938 161.367188 232.355469 164.140625 C 188.429688 175.621094 104.140625 170.476562 128.277344 158.59375 C 148.855469 148.695312 165.871094 149.882812 165.871094 149.882812 Z M 243.039062 193.050781 C 287.359375 170.082031 266.785156 147.902344 252.535156 150.675781 C 248.976562 151.46875 247.394531 152.257812 247.394531 152.257812 C 247.394531 152.257812 248.578125 149.882812 251.347656 149.089844 C 279.445312 139.191406 301.609375 178.792969 242.25 194.234375 C 242.25 194.234375 242.644531 193.839844 243.039062 193.046875 Z M 170.222656 255.621094 C 212.960938 258.390625 278.25 254.035156 279.84375 233.839844 C 279.84375 233.839844 276.679688 241.757812 244.625 247.699219 C 208.21875 254.429688 163.105469 253.636719 136.597656 249.28125 C 136.597656 249.28125 142.136719 254.035156 170.234375 255.617188 Z M 170.222656 255.621094 " fill-opacity="1" fill-rule="nonzero"/><g clip-path="url(#8707c1cdf5)"><path fill="#f58219" d="M 216.125 19.199219 C 216.125 19.199219 240.660156 44.148438 192.777344 81.769531 C 154.394531 112.261719 184.070312 129.6875 192.777344 149.488281 C 170.222656 129.292969 153.996094 111.46875 165.078125 94.839844 C 181.304688 70.285156 226.023438 58.414062 216.128906 19.199219 Z M 203.472656 132.859375 C 214.945312 145.925781 200.304688 157.808594 200.304688 157.808594 C 200.304688 157.808594 229.589844 142.757812 216.132812 124.144531 C 203.867188 106.328125 194.367188 97.613281 245.8125 67.921875 C 245.8125 67.921875 164.6875 88.117188 203.46875 132.867188 Z M 174.179688 345.511719 L 174.179688 306.703125 C 174.179688 296.800781 168.640625 290.070312 154.789062 290.070312 C 146.875 290.070312 140.148438 292.046875 134.210938 294.417969 L 136.191406 301.546875 C 140.535156 299.960938 146.085938 298.378906 152.019531 298.378906 C 159.539062 298.378906 163.101562 301.546875 163.101562 307.882812 L 163.101562 313.03125 L 159.144531 313.03125 C 140.148438 313.03125 131.441406 320.160156 131.441406 331.644531 C 131.441406 341.148438 137.378906 346.691406 148.0625 346.691406 C 154.789062 346.691406 159.9375 343.523438 164.683594 339.5625 L 165.476562 345.503906 L 174.183594 345.503906 Z M 163.101562 332.839844 C 159.144531 336.402344 154.789062 338.382812 150.832031 338.382812 C 145.6875 338.382812 142.523438 335.214844 142.523438 329.671875 C 142.523438 324.125 145.6875 320.167969 158.351562 320.167969 L 163.101562 320.167969 Z M 211.378906 345.511719 L 197.53125 345.511719 L 180.910156 291.257812 L 192.78125 291.257812 L 203.070312 324.523438 L 205.445312 334.421875 C 210.589844 320.164062 214.546875 305.511719 216.132812 291.257812 L 228.003906 291.257812 C 224.835938 309.078125 219.296875 328.480469 211.382812 345.511719 Z M 275.488281 345.511719 L 275.488281 306.703125 C 275.488281 296.800781 269.949219 290.070312 256.097656 290.070312 C 248.183594 290.070312 241.457031 292.046875 235.519531 294.417969 L 237.101562 301.546875 C 241.851562 299.960938 247.390625 298.378906 253.328125 298.378906 C 260.847656 298.378906 264.40625 301.546875 264.40625 307.882812 L 264.40625 313.03125 L 260.453125 313.03125 C 241.457031 313.03125 232.75 320.160156 232.75 331.644531 C 232.75 341.148438 238.289062 346.691406 248.972656 346.691406 C 256.097656 346.691406 261.242188 343.523438 265.992188 339.5625 L 266.78125 345.503906 L 275.488281 345.503906 Z M 264.40625 332.839844 C 260.453125 336.402344 256.097656 338.382812 252.140625 338.382812 C 246.996094 338.382812 243.828125 335.214844 243.828125 329.671875 C 243.828125 324.125 246.996094 320.167969 259.660156 320.167969 L 264.410156 320.167969 L 264.410156 332.832031 Z M 119.175781 354.621094 C 116.011719 359.375 111.261719 362.9375 105.324219 364.917969 L 100.179688 358.585938 C 104.136719 356.207031 108.09375 352.644531 109.675781 349.476562 C 111.257812 346.703125 111.65625 342.742188 111.65625 333.636719 L 111.65625 271.855469 L 123.527344 271.855469 L 123.527344 332.84375 C 123.527344 345.117188 122.339844 349.871094 119.183594 354.625 Z M 119.175781 354.621094 " fill-opacity="1" fill-rule="nonzero"/></g></svg>